Description
152 Big Ass Minutes! Gaping Butt Holes! Smokin' Asses! Big Asses Get Fucked! For ass lovers as myself, you should consider this masterpiece required viewing. I have hand selected the thickest asses to ever be seen on screen. These juicy glutes are nothing short of mesmerizing. And you have the best seat in the house to see them in all of their splendor as they get oiled up, bent over, worshiped and furiously worked into a frenzy. Don't be an ass, don't miss Gluteus Maximass! Perfectly Big Cheeks! Big Butt Babes! Horny For Cock!

Format : Matroska
Format version : Version 2
File size : 1 019 MiB
Duration : 2h 35mn
Overall bit rate : 918 Kbps
Encoded date : UTC 2013-05-11 09:01:51
Writing application : mkvmerge v5.8.0 ('No Sleep / Pillow') built on Sep 2 2012 15:37:04
Writing library : libebml v1.2.3 + libmatroska v1.3.0

Video
ID : 1
Format : AVC
Format/Info : Advanced Video Codec
Format profile : High@L4.1
Format settings, CABAC : Yes
Format settings, ReFrames : 4 frames
Muxing mode : Header stripping
Codec ID : V_MPEG4/ISO/AVC
Duration : 2h 35mn
Bit rate : 708 Kbps
Width : 720 pixels
Height : 400 pixels
Display aspect ratio : 16:9
Frame rate mode : Constant
Frame rate : 29.970 fps
Color space : YUV
Chroma subsampling : 4:2:0
Bit depth : 8 bits
Scan type : Progressive
Bits/(Pixel*Frame) : 0.082
Stream size : 786 MiB (77%)
Title : Gluteus Maximmas ( by fantasma )
Writing library : x264 core 130 r2273 b3065e6
Encoding settings : cabac=1 / ref=3 / deblock=1:0:0 / analyse=0x3:0x113 / me=hex / subme=7 / psy=1 / psy_rd=1.00:0.00 / mixed_ref=1 / me_range=16 / chroma_me=1 / trellis=1 / 8x8dct=1 / cqm=0 / deadzone=21,11 / fast_pskip=1 / chroma_qp_offset=-2 / threads=3 / lookahead_threads=1 / sliced_threads=0 / nr=0 / decimate=1 / interlaced=0 / bluray_compat=0 / constrained_intra=0 / bframes=3 / b_pyramid=2 / b_adapt=1 / b_bias=0 / direct=1 / weightb=1 / open_gop=0 / weightp=2 / keyint=300 / keyint_min=29 / scenecut=40 / intra_refresh=0 / rc_lookahead=40 / rc=crf / mbtree=1 / crf=23.0 / qcomp=0.60 / qpmin=0 / qpmax=69 / qpstep=4 / vbv_maxrate=62500 / vbv_bufsize=78125 / crf_max=0.0 / nal_hrd=none / ip_ratio=1.40 / aq=1:1.00
Language : English
Default : Yes
Forced : No

Audio
ID : 2
Format : AC-3
Format/Info : Audio Coding 3
Mode extension : CM (complete main)
Format settings, Endianness : Big
Muxing mode : Header stripping
Codec ID : A_AC3
Duration : 2h 35mn
Bit rate mode : Constant
Bit rate : 192 Kbps
Channel(s) : 2 channels
Channel positions : Front: L R
Sampling rate : 48.0 KHz
Bit depth : 16 bits
Compression mode : Lossy
Stream size : 213 MiB (21%)
Title : by fantasma
Language : English
Default : Yes
Forced : No

Text
ID : 3
Format : UTF-8
Codec ID : S_TEXT/UTF8
Codec ID/Info : UTF-8 Plain Text
Title : Credito
Language : Portuguese
Default : Yes
Forced : No

Menu
00:00:00.000 : en:Chapter 01
00:02:30.067 : en:Chapter 02
00:05:00.200 : en:Chapter 03
00:07:30.333 : en:Chapter 04
00:10:00.466 : en:Chapter 05
00:12:30.599 : en:Chapter 06
00:15:00.732 : en:Chapter 07
00:17:30.865 : en:Chapter 08
00:20:00.998 : en:Chapter 09
00:22:31.131 : en:Chapter 10
00:25:01.264 : en:Chapter 11
00:27:31.397 : en:Chapter 12
00:30:01.530 : en:Chapter 13
00:32:31.663 : en:Chapter 14
00:35:01.796 : en:Chapter 15
00:37:31.929 : en:Chapter 16
00:40:02.062 : en:Chapter 17
00:42:32.195 : en:Chapter 18
00:45:02.328 : en:Chapter 19
00:47:32.461 : en:Chapter 20
00:50:02.594 : en:Chapter 21
00:52:32.727 : en:Chapter 22
00:55:02.860 : en:Chapter 23
00:57:32.993 : en:Chapter 24
01:00:03.126 : en:Chapter 25
01:02:33.259 : en:Chapter 26
01:05:03.392 : en:Chapter 27
01:07:33.525 : en:Chapter 28
01:10:03.658 : en:Chapter 29
01:12:33.791 : en:Chapter 30
01:15:03.924 : en:Chapter 31
01:17:34.057 : en:Chapter 32
01:20:04.190 : en:Chapter 33
01:22:34.323 : en:Chapter 34
01:25:04.456 : en:Chapter 35
01:27:34.589 : en:Chapter 36
01:30:04.722 : en:Chapter 37
01:32:34.855 : en:Chapter 38
01:35:04.988 : en:Chapter 39
01:37:35.121 : en:Chapter 40
01:40:05.254 : en:Chapter 41
01:42:35.387 : en:Chapter 42
01:45:05.520 : en:Chapter 43
01:47:35.653 : en:Chapter 44
01:50:05.786 : en:Chapter 45
01:52:35.919 : en:Chapter 46
01:55:06.052 : en:Chapter 47
01:57:36.185 : en:Chapter 48
02:00:06.318 : en:Chapter 49
02:02:36.451 : en:Chapter 50
02:05:06.584 : en:Chapter 51
02:07:36.717 : en:Chapter 52
02:10:06.850 : en:Chapter 53
02:12:36.983 : en:Chapter 54
02:15:07.116 : en:Chapter 55
02:17:37.249 : en:Chapter 56
02:20:07.382 : en:Chapter 57
02:22:37.515 : en:Chapter 58
02:25:07.648 : en:Chapter 59
02:27:37.781 : en:Chapter 60
02:30:07.914 : en:Chapter 61
02:32:38.047 : en:Chapter 62
02:35:08.180 : en:Chapter 63